<svg width="754" height="862" viewBox="0 0 754 862" fill="none" xmlns="http://www.w3.org/2000/svg">
<path d="M-219.619 249.964C-185.686 35.3671 45.143 -163.099 251.503 -136.461C457.863 -109.823 639.754 141.919 605.822 356.516C571.889 571.114 322.134 748.566 115.774 721.928C-90.5866 695.29 -253.551 464.562 -219.619 249.964Z" fill="#F8AFBD" fill-opacity="0.07"/>
<path d="M-333.315 248.354C-301.377 46.3853 -24.1756 -111.529 204.296 -82.0381C431.987 -52.6481 611.728 164.248 579.791 366.217C547.853 568.186 304.238 755.228 76.5467 725.838C-151.924 696.348 -365.252 450.324 -333.315 248.354Z" fill="#F8AFBD" fill-opacity="0.14"/>
<path d="M-240.342 268.57C-205.429 47.7866 22.417 -120.997 249.158 -91.7301C476.678 -62.363 704.652 165.255 669.739 386.038C634.826 606.821 337.026 820.769 109.505 791.402C-117.236 762.135 -275.256 489.353 -240.342 268.57Z" fill="#F8AFBD" fill-opacity="0.21"/>
<path d="M-242.272 232.061C-205.154 -2.77817 28.1993 -213.823 225.75 -188.312C422.523 -162.902 584.27 99.1644 547.152 334.004C510.033 568.843 273.928 777.214 77.1555 751.803C-120.395 726.292 -279.391 466.901 -242.272 232.061Z" fill="#F8AFBD" fill-opacity="0.28"/>
<path d="M-268.27 225.483C-236.246 22.9636 0.822743 -149.219 201.793 -123.278C403.543 -97.2369 569.973 127.029 537.948 329.549C506.044 531.31 275.565 712.084 73.816 686.042C-127.154 660.101 -300.175 427.245 -268.27 225.483Z" fill="#F8AFBD" fill-opacity="0.35"/>
<path d="M-257.897 198.991C-225.136 -8.1824 8.1033 -205.741 227.883 -177.373C446.884 -149.106 651.646 104.987 618.884 312.161C586.123 519.334 316.079 678.07 97.078 649.803C-122.702 621.435 -290.659 406.164 -257.897 198.991Z" fill="#F8AFBD" fill-opacity="0.42"/>
<path d="M-286.501 207.887C-247.92 -36.1499 -2.03849 -250.329 216.637 -222.096C434.533 -193.964 625.224 76.5794 586.643 320.616C548.062 564.653 279.971 783.698 62.0742 755.566C-156.601 727.333 -325.082 451.923 -286.501 207.887Z" fill="#F8AFBD" fill-opacity="0.49"/>
</svg>
